<svg version="1.1" id="Layer_1" xmlns="http://www.w3.org/2000/svg" xmlns:xlink="http://www.w3.org/1999/xlink" x="0px" y="0px" width="1200px" height="1175.58px" viewBox="0 0 348 340.92"><defs><style>.cls-1{fill:none;}.cls-2{clip-path:url(#clip-path);}.cls-3{fill:#fff;}.cls-4{fill:#1e407c;}.cls-5{fill:#93bbe3;}</style><clipPath id="clip-path"><rect class="cls-1" x="1.39" y="-0.87" width="345.22" height="338.5"/></clipPath></defs><title>Shield</title><g class="cls-2"><g id="_Group_" data-name="&lt;Group&gt;"><g id="_Group_2" data-name="&lt;Group&gt;"><path id="_Compound_Path_" data-name="&lt;Compound Path&gt;" class="cls-3" d="M174.1,333.94C98.62,289,3.42,223.8,3.42,108.6V-13C38.24-26.21,92-42.69,174.1-42.69c83,0,140,17.95,170.68,29.66V108.6C344.78,224.78,245.9,291.72,174.1,333.94Z"/></g><g id="_Group_3" data-name="&lt;Group&gt;"><path id="_Compound_Path_2" data-name="&lt;Compound Path&gt;" class="cls-4" d="M225.45,176.41c0-2.58,2.12-6.59,2.12-10.17,0-4.26-5.22-5.61-9.28-6.18-8.53-1.18-11.38-.8-11.38-2.68,0-1.3,1.15-2.66,2.7-4.89,2.3-3.3,7.76-4.54,10.67-4.94a92.87,92.87,0,0,1,13.17-1,73.16,73.16,0,0,1,12.76,1.24c5.23.91,6,3.1,6,5.55v2.45c0,2.47-2,3.74-5.67,4.54-.91.2-2.19.43-2.8.56-2.65.55-5.92,1.07-7.08,4.41-2.49,7.17-6.83,12.8-10,12.65A1.32,1.32,0,0,1,225.45,176.41ZM233,60.84c-.31-.18-1.42-.58-1.42-1.67,0-1.26.92-2.57,2.77-5.06,4.27-5.73,10.15-12.76,12.3-12.76,1.05,0,1.71.72,3,3.18a14.45,14.45,0,0,1,1.43,6.21c0,7.62-2.63,13-6.7,19A56,56,0,0,0,233,60.84ZM107.58,75c1.92,0,3.38-1.27,6.28-4.48,6.49-7.17,12.75-8.13,12.75-11.19,0-1.36-.88-2.7-1.79-4.13a274,274,0,0,1-14-24.48c-1.49-2.84-3.44-4.78-4.92-4.78-2.39,0-4.92,2.79-6.38,5.18-2.06,3.37-4.12,7.18-4.12,10.63a74.85,74.85,0,0,0,3.45,20.86C101.23,69.25,104.63,75,107.58,75Zm77.93,25c0-4.46-5-11-13.77-11C164,89,158,94.89,156.46,99.48c1.86,3.61,3.66,7.42,11.13,9.68,1,.3,2,.33,2,1.17,0,1.2-1.26,1.79-3.92,1.79-8.46,0-13.49-3.45-15.72-6.38-2.19.3-4.72,1.16-7.88,1.27-2.59.09-3.77-1.63-3.77-3.94a11.45,11.45,0,0,1,1.33-4.95c.49-1,1-2,1.39-2.79,1.32-2.57,3.32-8.3,11-12.7.9-.51,3.23-1.93,4.43-2.63,4.37-2.57,7.68-3.18,12.87-3.18h3.81c6.23,0,9.42,1.75,12.16,4.06,5.58,4.69,8.65,7.25,8.65,10.73,0,3.87-.21,6.84-3.3,10.92-2.66,3.48-6.55,5.8-9.06,5.8-.71,0-.92-.38-.92-.78s.59-.8,1.19-1.29C183.93,104.61,184.86,101.65,185.51,100ZM223,219.65c-1.46.36-4.33,1.07-17.11,1.07-19.36,0-22.65-4.76-22.65-8.53,0-6.3,27.77-10.75,38.71-10.75,10.48,0,15.11,3.37,15.11,5.93C237.07,210.34,232.34,217.39,223,219.65ZM111.27,276.36C131.42,292.08,153,306,174.11,318.61h0c.19-19-.42-30.17,12.43-43.61,5.2-5.44,10.56-11,15.4-16,3.65-3.78,6.6-6.59,8.32-6.59,1.23,0,1.78.65,1.78,2.3s.75,7.92,4.62,15.37c4.8,9.26,11.89,10.45,14.16,11,55-41.41,101-95.6,101-172.71V-4C318.27-8.65,262.54-30,174.1-30S29.93-8.65,16.36-4V108.34a178.27,178.27,0,0,0,23.53,89.25c1.46-15.61,12-23,12-38.35,0-10.7-3-17.46-3-26.42,0-16.2,21.87-49.53,33.21-63.1.33-.4,1.07-1.35,2-1.35A2.41,2.41,0,0,1,86,69.7c1.15,1.77,1.65,2.7,2.89,2.7s1.73-.7,1.73-1.8c0-2.82-3.26-7.53-3.26-25.94,0-12.87,3-15.6,11-23.44,1.46-1.43,5.94-5.74,10.21-5.74,4.75,0,7.11,2.81,10,5.79,4.95,5,11.85,13.95,13,15.36a1.49,1.49,0,0,0,1.27.76c2.29,0,4.2-.69,14.13-.69,18.06,0,45.27,2.84,59.25,7.41,7.2,2.36,8.7,4,10.61,4,.93,0,1-.61,1-1.1,0-.91-1.9-2.37-1.9-3.61a2.19,2.19,0,0,1,1.33-1.78c10.43-5.6,19.34-9.84,27.48-9.84,4.74,0,7.08,4.11,9.08,8.17,1.56,3.17,3.23,7.42,3.23,11.78,0,11-4.22,17.78-7.58,22.5,1.61,1.65,3.89,4.16,5.28,5.82,2.48,3,5.45,6.82,5.45,10.82,0,1.73-.85,4.45-1.33,6.61-.22,1-1.07,2.9-2.75,2.87-1.52,0-1.91-1.69-2-3.15,0-.3,0-1,0-1.11,0-3.18-.88-7.49-3.83-10.51-3.4-3.47-6.51-6-10.44-6h-1.34a14.33,14.33,0,0,0-11.16,4.55,10.62,10.62,0,0,0-3.44,7.81c0,1.95,1.33,4.26,3.09,7.79,1,2.09,3.72,7.06,5.18,9.61a5.19,5.19,0,0,0,4.74,3c4.49,0,8.41-.62,8.41-2,0-.37-.2-.68-.81-.68-.26,0-.88.08-1.43.08-5.87,0-9-7.47-12-14.25,2.24-2.19,4.78-4.43,9.39-4.43,5.85,0,9.69,3.93,9.69,9a13.58,13.58,0,0,1-1.24,5.61,2.63,2.63,0,0,0-.36,1.06c0,.8,1,1,2.61,1.33.57.13,1.65.39,2.31.58a6.84,6.84,0,0,1,4.32,4.06c.51,1.38,1.69,4.54,1.94,5.31,1,2.89,2.53,7.1,2.53,12.15s-.35,6.69-1.76,11.91c-1.8,6.67-2.6,9.2-2.9,12.87a15.78,15.78,0,0,1,1,2.14,25.13,25.13,0,0,1,2.32,10.2v3.45a26.13,26.13,0,0,1-5.56,15.79c-2.25,3-5.47,7.31-7.31,9.68a6.18,6.18,0,0,1-4.61,2.47,13,13,0,0,1-2.88-.54L236.07,197c-3.93-1-5.38-3.56-6.66-7-.19-.52-.79-2-1-2.46-.94-2.41-1.47-4-3-4-1.11,0-2.18.73-3.29,2.4-3.93,5.91-6.06,8.06-13,9.76-2.42.59-7.32,1.62-10.06,2.23-4.14.92-11.53,2.86-15.7,2.86a25.1,25.1,0,0,1-2.77-.16c-5.68-.8-9.7-1.17-16.77-9.61-9.72-11.6-8.72-13.24-9.3-28.9-.07-1.75-.64-3.93-2.45-3.93-1.63,0-2.34,3.33-2.93,8-.7,5.53-2,11.27-4.69,11.27a17.54,17.54,0,0,1-6.11-1.24c-3.53-1.15-12.34-4.12-17-5.65-6.3-2.08-12.33-3.73-14.76-9.32-1.14-2.63-3.25-7.52-4.33-10.06-.75-1.79-1.31-2.72-2.48-2.72-1.68,0-2,2-2.24,3.56-.21,1.78-.66,5.88-.88,8.44-.95,10.92-3.13,15.56-7.75,21.65-2.12,2.79-4.13,5.63-6.47,8.74-4.84,6.42-7.76,13-7.6,25.42,0,.81,0,5.44,0,7.58C75.38,242.43,80.08,251.5,111.27,276.36Z"/><path id="_Compound_Path_3" data-name="&lt;Compound Path&gt;" class="cls-5" d="M257.88,112.75h0c.51,1.38,1.69,4.54,1.94,5.31,1,2.89,2.53,7.1,2.53,12.15s-.35,6.69-1.76,11.91c-1.8,6.67-2.6,9.2-2.9,12.87-.5-1-10-17.41-10.72-18.74a8.6,8.6,0,0,1-1.33-4.17c0-1.67.72-2.68,2.74-4,1.21-.76,2.79-1.67,3.85-2.21,4.89-2.5,6.06-5.6,6.06-8.91A28.12,28.12,0,0,0,257.88,112.75Zm-41.34,26.19a11.55,11.55,0,0,1,.95,3.85,5.5,5.5,0,0,1-2,4.67c-.81.72-1.71,1.49-2.54,2.25a9.25,9.25,0,0,0-3.37,2.78c-1.55,2.23-2.7,3.59-2.7,4.89a1.11,1.11,0,0,0,.43.94,6.74,6.74,0,0,1-2.64-5.47c0-1.72.56-2.63.56-4.24a12.48,12.48,0,0,0-.62-3.49c-2.63-8.8-7.06-19.28-9.79-26.4s-5-11.24-8.12-11.24c-1.75,0-3.3.86-5.14.86,2.51,0,6.4-2.32,9.05-5.8,3.09-4.08,3.3-7,3.3-10.92A7,7,0,0,0,192,87c4,4.06,6.53,9.23,9.23,14.95C207.12,114.49,212.24,128.22,216.54,138.93Zm-141.59,85c0-2.14,0-6.77,0-7.58-.15-12.44,2.76-19,7.6-25.42,2.34-3.1,4.35-5.95,6.47-8.74,4.62-6.09,6.8-10.73,7.75-21.65.22-2.56.67-6.66.88-8.44.19-1.57.56-3.56,2.24-3.56,1.18,0,1.73.93,2.48,2.72,1.07,2.54,3.18,7.43,4.33,10.06,2.43,5.59,8.46,7.24,14.76,9.32,4.63,1.53,13.43,4.5,17,5.65a17.54,17.54,0,0,0,6.11,1.24c2.72,0,4-5.74,4.69-11.27.59-4.71,1.3-8,2.93-8,1.82,0,2.39,2.18,2.45,3.93.58,15.67-.42,17.3,9.3,28.9,7.07,8.44,11.1,8.82,16.77,9.61-2.11-.63-4.82-3.07-4.82-8.19v-5.63a21.56,21.56,0,0,1,1.73-8.92c.66-1.53,1.43-4.28,2.15-6,1.24-2.87.65-3.6.65-5.62s-.7-4.26-2.39-9.38c-.87-2.63-2-6.46-3.17-9.61-3.52-9.83-4.95-12.15-16.7-13.7-3.77-.5-20.26-2.84-23.71-3.33-13.19-1.87-23.52-2.5-28.9-11.34-6.42-10.55-5.77-23.42-11.95-23.42-2.93,0-4.48,3.28-4.48,8.06,0,5,1.9,13.15,1.9,27.28,0,12.22-1.14,15.63-8.26,24.63-1.85,2.34-4.33,5.77-5.93,7.77-5.3,6.65-7.65,10.4-7.33,18.16A264,264,0,0,0,74.95,223.92Zm134.49,47.19c.45-4.9,2.61-13.07,2.61-16.41h0c0-1.65-.55-2.3-1.78-2.3-1.72,0-4.68,2.82-8.32,6.59-4.84,5-10.2,10.56-15.4,16-12.85,13.44-12.24,24.63-12.43,43.61h0c14.28-8.61,27.34-16.88,37-23.48C209.69,287.22,208.49,281.55,209.44,271.11Z"/></g></g></g></svg>