<?xml version="1.0" encoding="utf-8"?>
<!-- Generator: Adobe Illustrator 18.0.0, SVG Export Plug-In . SVG Version: 6.00 Build 0)  -->
<svg version="1.1" id="Layer_1" xmlns="http://www.w3.org/2000/svg" xmlns:xlink="http://www.w3.org/1999/xlink" x="0px" y="0px"
	 viewBox="0 0 331.3 100" style="enable-background:new 0 0 331.3 100;" height="93" width="200">
<g>
	<g id="XMLID_8_">
		<g id="XMLID_81_">
			<path id="XMLID_83_" fill="#FFFFFF" d="M73.2,117.7c-16.4-9.7-37-23.9-37-48.9V42.4c7.5-2.9,19.2-6.4,37-6.4
				c18,0,30.3,3.9,37,6.4v26.4C110.2,94,88.7,108.5,73.2,117.7z"/>
		</g>
		<g id="XMLID_68_">
			<path id="XMLID_74_" fill="#1E407C" d="M84.3,83.5c0-0.6,0.5-1.4,0.5-2.2c0-0.9-1.1-1.2-2-1.3c-1.8-0.3-2.5-0.2-2.5-0.6
				c0-0.3,0.2-0.6,0.6-1.1c0.5-0.7,1.7-1,2.3-1.1C84,77.2,84.9,77,86,77c1.2,0,2.3,0.2,2.8,0.3c1.1,0.2,1.3,0.7,1.3,1.2
				c0,0.1,0,0.4,0,0.5c0,0.5-0.4,0.8-1.2,1c-0.2,0-0.5,0.1-0.6,0.1c-0.6,0.1-1.3,0.2-1.5,1c-0.5,1.6-1.5,2.8-2.2,2.7
				C84.4,83.8,84.3,83.7,84.3,83.5z M85.9,58.5c-0.1,0-0.3-0.1-0.3-0.4c0-0.3,0.2-0.6,0.6-1.1c0.9-1.2,2.2-2.8,2.7-2.8
				c0.2,0,0.4,0.2,0.7,0.7c0.2,0.3,0.3,0.8,0.3,1.3c0,1.7-0.6,2.8-1.5,4.1C88,60,87.1,59.2,85.9,58.5z M58.7,61.5
				c0.4,0,0.7-0.3,1.4-1c1.4-1.6,2.8-1.8,2.8-2.4c0-0.3-0.2-0.6-0.4-0.9c-1.5-2.3-2.1-3.6-3-5.3c-0.3-0.6-0.7-1-1.1-1
				c-0.5,0-1.1,0.6-1.4,1.1c-0.4,0.7-0.9,1.6-0.9,2.3c0,1.1,0.3,3.2,0.7,4.5C57.4,60.3,58.1,61.5,58.7,61.5z M75.6,67
				c0-1-1.1-2.4-3-2.4c-1.7,0-3,1.3-3.3,2.3c0.4,0.8,0.8,1.6,2.4,2.1c0.2,0.1,0.4,0.1,0.4,0.3c0,0.3-0.3,0.4-0.8,0.4
				c-1.8,0-2.9-0.7-3.4-1.4c-0.5,0.1-1,0.3-1.7,0.3c-0.6,0-0.8-0.4-0.8-0.9c0-0.3,0.1-0.7,0.3-1.1c0.1-0.2,0.2-0.4,0.3-0.6
				c0.3-0.6,0.7-1.8,2.4-2.8c0.2-0.1,0.7-0.4,1-0.6c0.9-0.6,1.7-0.7,2.8-0.7c0.1,0,0.7,0,0.8,0c1.4,0,2,0.4,2.6,0.9
				c1.2,1,1.9,1.6,1.9,2.3c0,0.8,0,1.5-0.7,2.4c-0.6,0.8-1.4,1.3-2,1.3c-0.2,0-0.2-0.1-0.2-0.2c0-0.1,0.1-0.2,0.3-0.3
				C75.3,68,75.5,67.3,75.6,67z M83.8,92.9c-0.3,0.1-0.9,0.2-3.7,0.2c-4.2,0-4.9-1-4.9-1.8c0-1.4,6-2.3,8.4-2.3
				c2.3,0,3.3,0.7,3.3,1.3C86.8,90.9,85.8,92.4,83.8,92.9z M59.5,105.2c4.4,3.4,9,6.4,13.6,9.2l0,0l0,0c0-4.1-0.1-6.5,2.7-9.5
				c1.1-1.2,2.3-2.4,3.3-3.5c0.8-0.8,1.4-1.4,1.8-1.4c0.3,0,0.4,0.1,0.4,0.5c0,0.4,0.2,1.7,1,3.3c1,2,2.6,2.3,3.1,2.4
				c11.9-9,21.9-20.7,21.9-37.4c0-9.2,0-24.4,0-24.4c-2.9-1-15-5.6-34.2-5.6S41.9,43.4,39,44.4c0,0,0,15.2,0,24.4
				c0,7.3,1.9,13.7,5.1,19.4c0.3-3.4,2.6-5,2.6-8.3c0-2.3-0.7-3.8-0.7-5.7c0-3.5,4.7-10.7,7.2-13.7c0.1-0.1,0.2-0.3,0.4-0.3
				c0.2,0,0.3,0.1,0.4,0.3c0.3,0.4,0.4,0.6,0.6,0.6c0.3,0,0.4-0.2,0.4-0.4c0-0.6-0.7-1.6-0.7-5.6c0-2.8,0.6-3.4,2.4-5.1
				c0.3-0.3,1.3-1.2,2.2-1.2c1,0,1.5,0.6,2.2,1.3c1.1,1.1,2.6,3,2.8,3.3c0.1,0.1,0.1,0.2,0.3,0.2c0.5,0,0.9-0.1,3.1-0.1
				c3.9,0,9.8,0.6,12.8,1.6c1.6,0.5,1.9,0.9,2.3,0.9c0.2,0,0.2-0.1,0.2-0.2c0-0.2-0.4-0.5-0.4-0.8c0-0.2,0.1-0.3,0.3-0.4
				c2.3-1.2,4.2-2.1,6-2.1c1,0,1.5,0.9,2,1.8c0.3,0.7,0.7,1.6,0.7,2.6c0,2.4-0.9,3.9-1.6,4.9c0.3,0.4,0.8,0.9,1.1,1.3
				c0.5,0.6,1.2,1.5,1.2,2.3c0,0.4-0.2,1-0.3,1.4c0,0.2-0.2,0.6-0.6,0.6c-0.3,0-0.4-0.4-0.4-0.7c0-0.1,0-0.2,0-0.2
				c0-0.7-0.2-1.6-0.8-2.3c-0.7-0.8-1.4-1.3-2.3-1.3c-0.1,0-0.2,0-0.3,0c-1.4,0-2,0.6-2.4,1c-0.4,0.4-0.7,1-0.7,1.7
				c0,0.4,0.3,0.9,0.7,1.7c0.2,0.5,0.8,1.5,1.1,2.1c0.3,0.5,0.6,0.7,1,0.7c1,0,1.8-0.1,1.8-0.4c0-0.1,0-0.1-0.2-0.1
				c-0.1,0-0.2,0-0.3,0c-1.3,0-2-1.6-2.6-3.1c0.5-0.5,1-1,2-1c1.3,0,2.1,0.9,2.1,2c0,0.6-0.2,1-0.3,1.2c-0.1,0.1-0.1,0.2-0.1,0.2
				c0,0.2,0.2,0.2,0.6,0.3c0.1,0,0.4,0.1,0.5,0.1c0.4,0.1,0.8,0.4,0.9,0.9c0.1,0.3,0.4,1,0.4,1.2c0.2,0.6,0.5,1.5,0.5,2.6
				c0,1.1-0.1,1.5-0.4,2.6c-0.4,1.4-0.6,2-0.6,2.8c0.1,0.2,0.1,0.3,0.2,0.5c0.2,0.5,0.5,1.3,0.5,2.2c0,0.2,0,0.7,0,0.7
				c0,1.5-0.6,2.6-1.2,3.4c-0.5,0.7-1.2,1.6-1.6,2.1c-0.3,0.3-0.6,0.5-1,0.5c-0.2,0-0.4-0.1-0.6-0.1c-0.2-0.1-0.8-0.2-1-0.2
				c-0.9-0.2-1.2-0.8-1.4-1.5c0-0.1-0.2-0.4-0.2-0.5c-0.2-0.5-0.3-0.9-0.6-0.9c-0.2,0-0.5,0.2-0.7,0.5c-0.9,1.3-1.3,1.7-2.8,2.1
				c-0.5,0.1-1.6,0.4-2.2,0.5c-0.9,0.2-2.5,0.6-3.4,0.6c-0.2,0-0.4,0-0.6,0c-1.2-0.2-2.1-0.3-3.6-2.1c-2.1-2.5-1.9-2.9-2-6.3
				c0-0.4-0.1-0.9-0.5-0.9c-0.4,0-0.5,0.7-0.6,1.7c-0.2,1.2-0.4,2.4-1,2.4c-0.4,0-0.7-0.1-1.3-0.3c-0.8-0.2-2.7-0.9-3.7-1.2
				c-1.4-0.5-2.7-0.8-3.2-2c-0.2-0.6-0.7-1.6-0.9-2.2c-0.2-0.4-0.3-0.6-0.5-0.6c-0.4,0-0.4,0.4-0.5,0.8c0,0.4-0.1,1.3-0.2,1.8
				c-0.2,2.4-0.7,3.4-1.7,4.7c-0.5,0.6-0.9,1.2-1.4,1.9c-1,1.4-1.7,2.8-1.6,5.5c0,0.2,0,1.2,0,1.6C51.8,97.8,52.8,99.8,59.5,105.2z"
				/>
			<path id="XMLID_69_" fill="#96BEE6" d="M91.3,69.7L91.3,69.7c0.1,0.3,0.4,1,0.4,1.2c0.2,0.6,0.5,1.5,0.5,2.6
				c0,1.1-0.1,1.5-0.4,2.6c-0.4,1.4-0.6,2-0.6,2.8c-0.1-0.2-2.2-3.8-2.3-4.1c-0.2-0.3-0.3-0.6-0.3-0.9c0-0.4,0.2-0.6,0.6-0.9
				c0.3-0.2,0.6-0.4,0.8-0.5c1.1-0.5,1.3-1.2,1.3-1.9C91.4,70.3,91.4,70,91.3,69.7z M82.4,75.4c0.1,0.3,0.2,0.6,0.2,0.8
				c0,0.5-0.1,0.7-0.4,1c-0.2,0.2-0.4,0.3-0.6,0.5c-0.3,0.2-0.6,0.3-0.7,0.6c-0.3,0.5-0.6,0.8-0.6,1.1c0,0.1,0,0.2,0.1,0.2
				c-0.4-0.3-0.6-0.8-0.6-1.2c0-0.4,0.1-0.6,0.1-0.9c0-0.3-0.1-0.6-0.1-0.8c-0.6-1.9-1.5-4.2-2.1-5.7c-0.6-1.6-1.1-2.4-1.8-2.4
				c-0.4,0-0.7,0.2-1.1,0.2c0.5,0,1.4-0.5,2-1.3c0.7-0.9,0.7-1.5,0.7-2.4c0-0.4-0.1-0.7-0.4-1c0.9,0.9,1.4,2,2,3.2
				C80.3,70.1,81.4,73.1,82.4,75.4z M51.7,93.8c0-0.5,0-1.5,0-1.6c0-2.7,0.6-4.1,1.6-5.5c0.5-0.7,0.9-1.3,1.4-1.9
				c1-1.3,1.5-2.3,1.7-4.7c0-0.6,0.1-1.4,0.2-1.8c0-0.3,0.1-0.8,0.5-0.8c0.3,0,0.4,0.2,0.5,0.6c0.2,0.6,0.7,1.6,0.9,2.2
				c0.5,1.2,1.8,1.6,3.2,2c1,0.3,2.9,1,3.7,1.2c0.6,0.2,0.9,0.3,1.3,0.3c0.6,0,0.9-1.2,1-2.4c0.1-1,0.3-1.7,0.6-1.7
				c0.4,0,0.5,0.5,0.5,0.9c0.1,3.4-0.1,3.8,2,6.3c1.5,1.8,2.4,1.9,3.6,2.1c-0.5-0.1-1-0.7-1-1.8c0-0.2,0-1.1,0-1.2
				c0-0.6,0.1-1.2,0.4-1.9c0.1-0.3,0.3-0.9,0.5-1.3c0.3-0.6,0.1-0.8,0.1-1.2c0-0.5-0.2-0.9-0.5-2c-0.2-0.6-0.4-1.4-0.7-2.1
				c-0.8-2.1-1.1-2.6-3.6-3c-0.8-0.1-4.4-0.6-5.1-0.7c-2.9-0.4-5.1-0.5-6.3-2.5C56.9,68.8,57,66,55.7,66c-0.6,0-1,0.7-1,1.7
				c0,1.1,0.4,2.9,0.4,5.9c0,2.7-0.2,3.4-1.8,5.3c-0.4,0.5-0.9,1.3-1.3,1.7c-1.1,1.4-1.7,2.3-1.6,3.9C50.7,89,51.3,92.2,51.7,93.8z
				 M80.8,104.1c0.1-1.1,0.6-2.8,0.6-3.6v0c0-0.4-0.1-0.5-0.4-0.5c-0.4,0-1,0.6-1.8,1.4c-1.1,1.1-2.2,2.3-3.3,3.5
				c-2.8,2.9-2.7,5.3-2.7,9.5l0,0c3.1-1.9,5.9-3.7,8-5.1C80.9,107.5,80.6,106.3,80.8,104.1z"/>
		</g>
	</g>
	<g id="XMLID_119_">
		<path id="XMLID_129_" fill="#FFFFFF" d="M283,69.5h12.6c-0.1-6.5-3.2-10.2-8.6-10.2c-5.4,0-8.9,3.7-8.9,9.4c0,2.2,0.7,9.2,9.8,9.2
			c3.7,0,5.7-0.8,6.5-1.1v-3.4c-0.9,0.4-2.7,1.1-5.4,1.1C285.5,74.5,283.2,72.5,283,69.5z M265.2,62.9h2.5V73c0,3,2.2,4.9,5.7,4.9
			c1.7,0,3.4-0.4,3.8-0.5v-3.1c-0.8,0.2-1.5,0.2-2,0.2c-2.2,0-3-0.9-3-3.4v-8.2h4.8v-3.2h-4.8v-3.9h-4.5v3.9h-2.5V62.9z M251.7,63.1
			c0.2-0.1,1.6-0.6,3-0.6c2.7,0,3.8,1.1,3.8,3.6v1h-2.4c-6,0-9.1,1.9-9.1,5.6c0,3.1,2.3,5.1,5.9,5.1c3.7,0,5.4-2.2,5.9-2.9l0.1,0
			l0.1,2.5h5.5v-3.2h-1.9v-8c0-4.6-2.7-6.9-8.1-6.9c-3.2,0-6.1,1.5-6.7,1.8v4.3h3.8V63.1z M233.5,62.9h2.5V73c0,3,2.2,4.9,5.7,4.9
			c1.7,0,3.4-0.4,3.8-0.5v-3.1c-0.5,0.1-1.3,0.2-2,0.2c-2.2,0-3-0.9-3-3.4v-8.2h4.8v-3.2h-4.8v-3.9h-4.5v3.9h-2.5V62.9z M218.4,73.6
			v-3.1h-4.2v6.1c2.6,0.9,5.1,1.3,8.1,1.3c6,0,9.3-2.7,9.3-7.5c0-4.9-3.6-6.3-7-7.2l-2.4-0.6c-2-0.5-3-1.5-3-3.1
			c0-1.5,1.3-3.1,4.1-3.1c1.2,0,2.5,0.4,3,0.6v2.9h4.2v-5.5c-2-0.8-4.7-1.2-7.4-1.2c-5.7,0-8.9,2.4-8.9,6.7c0,3.9,1.8,5.9,6.2,7.1
			l2.1,0.6c2.9,0.8,4.1,1.8,4.1,3.6c0,2-1.4,3.1-4,3.1C221.3,74.3,219.3,73.9,218.4,73.6z M152,69.5h12.6
			c-0.1-6.5-3.2-10.2-8.6-10.2c-5.4,0-8.9,3.7-8.9,9.4c0,2.2,0.7,9.2,9.8,9.2c3.7,0,5.7-0.8,6.5-1.1v-3.4c-0.9,0.4-2.7,1.1-5.4,1.1
			C154.5,74.5,152.2,72.5,152,69.5z M179.3,77.5h8.5v-3.2h-2.1v-7.9c0-4.3-2.7-7-6.8-7c-3.4,0-5.2,2-5.7,2.8l-0.1,0l-0.1-2.4h-6.3
			v3.2h2.4v11.4h-2v3.2h8.5v-3.2h-2.1v-7.1c0-2.6,1.4-4.1,3.8-4.1c2.5,0,3.9,1.5,3.9,4.1v7.1h-2V77.5z M126.4,77.5h9.5v-3.2h-2.4
			v-6.2h3.9c5.5,0,8.7-2.7,8.7-7.3c0-4.5-3.3-7.3-8.7-7.3h-10.9v3.2h2.4v17.5h-2.4V77.5z M254.3,74.7c-2.1,0-2.8-1.3-2.8-2.4
			c0-1.8,1.6-2.6,5.4-2.6h1.5V70C258.4,73.3,256.3,74.7,254.3,74.7z M283,66.6c0.2-2.6,1.7-4.3,3.9-4.3c2.4,0,3.8,1.5,3.8,4.1v0.2
			H283z M152,66.6c0.2-2.7,1.6-4.3,3.9-4.3c2.4,0,3.8,1.5,3.8,4.1v0.2H152z M136.8,65h-3.3v-8.2h3.3c2.7,0,4.4,1.6,4.4,4.1
			C141.1,63.4,139.5,65,136.8,65z M202.5,77.5h8.5v-3.2h-2.1v-7.9c0-4.3-2.7-7-6.8-7c-3.4,0-5.2,2-5.7,2.8l-0.1,0l-0.1-2.4h-6.3v3.2
			h2.4v11.4h-2v3.2h8.5v-3.2h-2.1v-7.1c0-2.6,1.4-4.1,3.8-4.1c2.5,0,3.9,1.5,3.9,4.1v7.1h-2V77.5z"/>
	</g>
</g>
</svg>
